<?xml version="1.0" encoding="UTF-8" ?>
<!DOCTYPE svg PUBLIC "-//W3C//DTD SVG 1.1//EN" "http://www.w3.org/Graphics/SVG/1.1/DTD/svg11.dtd">
<svg width="700pt" height="700pt" viewBox="0 0 700 700" version="1.1" xmlns="http://www.w3.org/2000/svg">
<g id="#ffffffff">
<path fill="#ffffff" opacity="1.00" d=" M 336.02 173.09 C 337.37 171.53 338.83 170.07 340.28 168.59 C 341.44 178.70 340.55 188.87 340.70 199.00 C 340.54 209.19 341.21 219.39 340.59 229.58 C 338.31 230.19 336.03 230.84 333.74 231.43 C 328.75 232.39 323.92 233.96 319.31 236.08 C 315.52 225.83 309.86 216.03 301.61 208.73 C 308.38 203.51 315.56 198.73 321.46 192.49 C 327.01 186.59 332.06 180.18 336.02 173.09 Z" />
<path fill="#ffffff" opacity="1.00" d=" M 251.41 247.37 C 261.84 232.35 273.16 217.98 283.67 203.03 C 285.71 204.46 287.80 205.84 289.94 207.13 C 282.41 218.13 274.23 228.66 266.49 239.51 C 252.53 258.62 238.87 277.95 224.85 297.01 C 222.78 295.37 220.80 293.63 218.84 291.88 C 229.91 277.20 240.50 262.16 251.41 247.37 Z" />
<path fill="#ffffff" opacity="1.00" d=" M 447.18 203.29 C 449.37 204.78 451.58 206.23 453.79 207.69 C 431.79 237.67 409.93 267.75 387.95 297.74 C 385.94 296.03 383.93 294.32 381.87 292.66 C 400.40 267.87 418.35 242.66 436.82 217.82 C 440.33 213.02 443.83 208.21 447.18 203.29 Z" />
<path fill="#ffffff" opacity="1.00" d=" M 243.17 291.16 C 261.53 265.31 280.00 239.52 298.87 214.03 C 300.15 215.34 301.44 216.66 302.72 217.98 C 281.73 247.27 260.74 276.56 239.68 305.79 C 238.00 305.09 236.32 304.37 234.65 303.66 C 236.92 299.12 240.27 295.28 243.17 291.16 Z" />
<path fill="#ffffff" opacity="1.00" d=" M 407.80 289.80 C 425.58 264.46 444.07 239.63 462.14 214.49 C 463.60 215.88 465.04 217.28 466.47 218.71 C 458.35 229.24 450.79 240.20 442.95 250.94 C 429.69 269.22 416.31 287.43 403.33 305.91 C 401.56 305.38 399.82 304.73 398.08 304.12 C 400.72 298.96 404.53 294.55 407.80 289.80 Z" />
<path fill="#ffffff" opacity="1.00" d=" M 321.46 249.65 C 325.75 247.53 330.01 245.03 334.82 244.35 C 336.77 244.56 338.71 244.87 340.65 245.16 C 341.23 256.68 340.54 268.22 340.68 279.75 C 335.39 279.94 330.07 279.94 324.82 280.65 C 321.23 281.79 320.59 286.04 321.78 289.15 C 324.66 297.05 331.23 302.78 337.72 307.77 C 337.33 310.58 336.87 313.64 334.68 315.68 C 331.39 319.39 325.10 321.22 320.91 318.02 C 318.09 316.00 318.03 312.21 316.45 309.39 C 314.64 307.41 310.92 309.44 311.54 312.03 C 311.82 319.39 318.57 325.92 325.99 325.71 C 331.20 325.94 335.94 323.03 339.36 319.31 C 340.83 324.06 341.18 329.06 340.96 334.01 C 340.46 346.98 341.62 359.98 340.59 372.94 C 331.72 373.56 322.84 372.75 313.97 372.68 C 293.99 371.49 274.37 366.67 255.47 360.26 C 233.12 352.16 211.43 340.80 194.56 323.78 C 197.33 322.37 200.20 321.14 202.93 319.62 C 202.74 318.25 202.50 316.89 202.27 315.53 C 197.68 315.07 193.97 318.37 189.86 319.84 C 186.70 316.27 183.66 312.58 181.00 308.63 C 186.27 307.90 191.58 307.58 196.87 307.10 C 199.95 305.83 198.12 300.89 194.98 301.69 C 189.20 302.47 183.36 302.71 177.60 303.61 C 176.14 301.38 174.78 299.09 173.39 296.83 C 173.61 296.22 174.07 295.01 174.30 294.41 C 178.29 293.78 182.27 293.08 186.28 292.57 C 189.32 292.71 192.22 293.81 195.18 294.46 C 195.76 294.09 196.91 293.36 197.49 292.99 C 201.41 290.03 206.54 290.07 211.12 291.15 C 220.63 303.92 235.73 312.19 251.41 314.41 C 257.17 314.93 263.00 314.95 268.75 314.34 C 284.35 311.79 299.11 303.34 308.60 290.59 C 313.33 284.29 317.35 277.27 319.26 269.57 C 320.72 263.04 321.68 256.36 321.46 249.65 Z" />
<path fill="#ffffff" opacity="1.00" d=" M 276.97 386.02 C 278.81 381.88 280.93 377.85 283.54 374.14 C 296.94 376.57 310.42 378.67 324.02 379.46 C 343.62 380.27 363.35 380.08 382.75 376.86 C 387.18 376.26 391.55 375.27 395.97 374.63 C 397.19 374.60 398.41 374.60 399.64 374.63 C 401.40 378.52 403.25 382.36 405.08 386.22 C 387.57 391.45 370.77 399.87 357.10 412.11 C 350.81 417.62 345.84 424.38 341.10 431.22 C 326.94 408.20 302.45 393.46 276.97 386.02 Z" />
<path fill="#ffffff" opacity="1.00" d=" M 186.86 380.36 C 188.93 378.84 190.93 377.22 192.91 375.57 C 209.59 381.83 227.63 382.55 245.07 385.34 C 265.00 387.73 284.71 393.04 302.40 402.69 C 316.68 411.02 329.94 422.08 337.81 436.88 C 331.29 436.55 324.75 435.54 318.55 433.46 C 286.95 420.76 255.46 407.76 223.74 395.32 C 211.55 390.08 198.97 385.78 186.86 380.36 Z" />
<path fill="#ffffff" opacity="1.00" d=" M 464.78 427.92 C 474.68 424.35 484.25 419.86 494.32 416.77 C 494.41 431.40 494.51 446.04 494.35 460.67 C 483.04 472.12 479.89 490.78 487.57 505.06 C 485.29 506.33 482.94 507.49 480.51 508.45 C 449.13 520.23 418.17 533.09 386.73 544.71 C 386.50 516.08 386.69 487.44 386.60 458.81 C 412.63 448.44 438.78 438.37 464.78 427.92 M 406.29 473.31 C 404.37 474.10 402.31 474.77 400.77 476.22 C 400.26 478.17 401.12 480.06 401.59 481.93 C 424.48 473.62 446.81 463.89 469.64 455.42 C 473.08 454.17 476.47 452.76 479.78 451.17 C 479.53 449.10 478.98 447.09 478.47 445.08 C 454.38 454.40 430.41 464.06 406.29 473.31 M 457.59 476.62 C 438.52 483.80 419.74 491.70 400.64 498.77 C 400.58 500.76 400.59 502.76 400.59 504.76 C 402.89 504.63 405.17 504.21 407.29 503.28 C 420.81 497.57 434.71 492.81 448.27 487.19 C 458.66 482.82 469.40 479.32 479.73 474.81 C 479.68 472.76 479.58 470.71 479.48 468.67 C 471.83 470.19 464.91 474.03 457.59 476.62 Z" />
<path fill="#ffffff" opacity="1.00" d=" M 194.78 419.19 C 203.03 422.08 210.96 425.79 219.11 428.93 C 244.02 438.59 268.60 449.09 293.53 458.67 C 293.53 460.79 293.56 462.91 293.54 465.04 C 286.40 463.79 280.02 460.19 273.32 457.62 C 247.10 447.07 220.85 436.59 194.64 426.04 C 194.67 423.75 194.70 421.47 194.78 419.19 Z" />
<path fill="#ffffff" opacity="1.00" d=" M 174.49 456.38 C 184.13 458.95 192.04 466.16 195.98 475.27 C 189.19 475.57 182.38 474.98 175.61 475.67 C 175.45 477.24 175.38 478.82 175.31 480.41 C 182.73 482.49 190.60 480.76 198.20 481.46 C 198.84 486.89 198.34 492.33 197.03 497.63 C 189.80 498.13 182.41 496.85 175.30 498.61 C 175.29 500.19 175.33 501.78 175.43 503.38 C 181.59 504.21 187.89 503.00 193.99 504.41 C 187.41 514.13 175.94 520.85 163.97 519.36 C 160.06 508.60 159.41 496.91 161.00 485.63 C 162.78 474.82 168.58 465.38 174.49 456.38 Z" />
<path fill="#ffffff" opacity="1.00" d=" M 172.47 627.89 C 175.70 615.59 186.63 605.54 199.23 603.58 C 204.34 603.16 209.65 602.96 214.59 604.56 C 224.22 607.23 232.28 614.58 236.25 623.70 C 239.61 631.52 239.31 640.47 237.24 648.59 C 234.22 648.59 231.20 648.67 228.19 648.51 C 226.75 643.49 228.05 637.78 227.46 632.50 C 225.72 631.91 222.94 630.69 222.25 633.28 C 221.23 638.31 222.05 643.56 221.82 648.67 C 217.44 648.60 213.06 648.57 208.69 648.63 C 208.56 642.83 208.88 637.02 208.60 631.23 C 208.58 629.86 207.02 629.34 206.26 628.42 C 205.54 628.75 204.10 629.40 203.38 629.73 C 203.04 636.00 203.29 642.29 203.19 648.57 C 198.88 648.59 194.57 648.54 190.26 648.61 C 190.00 643.54 190.82 638.34 189.65 633.37 C 189.01 631.07 186.12 631.53 184.46 632.36 C 184.26 637.75 184.39 643.15 184.41 648.54 C 180.91 648.58 177.42 648.57 173.92 648.47 C 171.39 641.95 170.48 634.68 172.47 627.89 Z" />
</g>
<g id="#040404ff">
<path fill="#040404" opacity="1.00" d=" M 181.67 53.50 C 182.29 51.59 184.93 51.96 186.36 52.68 C 216.40 67.06 246.69 81.14 275.15 98.50 C 308.73 85.93 345.99 82.80 381.02 90.81 C 388.72 92.52 396.32 94.68 403.75 97.33 C 405.16 97.84 406.84 98.19 408.17 97.21 C 436.43 80.70 465.95 66.48 495.56 52.58 C 497.14 51.82 499.74 51.88 500.00 54.07 C 503.45 64.04 504.99 74.53 506.17 84.97 C 508.40 112.77 505.00 140.72 498.76 167.81 C 498.34 170.15 497.60 172.82 499.09 174.95 C 503.63 182.49 507.57 190.37 510.97 198.48 C 513.73 198.50 516.91 198.81 518.55 201.40 C 521.21 204.74 519.54 209.35 516.53 211.83 C 523.87 234.14 526.65 258.71 520.34 281.60 C 528.86 280.58 537.41 279.48 546.00 279.51 C 546.42 280.19 547.26 281.55 547.68 282.23 C 547.02 283.82 545.89 285.41 543.94 285.29 C 535.31 285.38 526.76 286.56 518.23 287.73 C 516.06 293.37 513.50 298.85 510.78 304.25 C 520.36 305.75 529.87 307.66 539.33 309.76 C 541.03 310.06 541.76 311.81 542.75 313.01 C 541.55 314.53 540.35 316.47 538.12 315.58 C 527.88 313.04 517.50 311.09 507.07 309.43 C 504.05 313.88 500.87 318.26 497.08 322.10 C 507.89 328.21 518.90 334.12 528.75 341.74 C 528.39 343.82 526.98 346.59 524.42 345.45 C 514.36 338.55 503.94 332.13 493.00 326.68 C 480.91 338.00 467.34 347.74 452.60 355.31 C 456.28 362.27 460.31 369.04 464.46 375.74 C 471.23 375.23 477.96 373.96 484.52 372.20 C 487.28 371.54 489.77 369.91 492.59 369.54 C 496.62 371.99 499.65 375.97 503.94 377.97 C 509.45 376.69 514.38 373.46 519.96 372.45 C 521.89 373.05 522.08 375.26 522.21 376.97 C 522.31 389.94 522.21 402.90 522.31 415.87 C 536.73 426.36 549.33 440.23 555.50 457.20 C 560.33 469.97 561.54 484.64 556.35 497.50 C 551.79 509.81 541.60 520.06 528.89 523.80 C 541.75 536.22 550.02 553.22 552.03 570.96 C 555.41 599.66 543.56 629.49 521.80 648.41 C 533.55 648.63 545.31 648.44 557.06 648.51 C 558.66 648.37 560.17 648.95 561.67 649.45 C 561.69 650.84 561.70 652.24 561.71 653.65 C 560.52 654.08 559.31 654.36 558.08 654.48 C 412.65 654.44 267.21 654.52 121.78 654.44 C 120.48 652.40 119.94 649.35 123.02 648.71 C 137.11 648.30 151.24 648.97 165.34 648.31 C 138.62 625.31 127.72 585.34 140.34 552.21 C 143.95 541.44 150.81 532.24 158.35 523.90 C 143.09 519.42 131.47 505.52 128.73 490.00 C 126.21 478.39 128.23 466.24 132.31 455.23 C 138.97 439.40 150.57 425.98 164.34 415.88 C 164.44 401.74 164.18 387.59 164.49 373.46 C 165.13 373.28 166.39 372.91 167.03 372.72 C 171.30 373.94 175.29 375.94 179.48 377.39 C 181.12 378.10 182.29 376.32 183.57 375.62 C 186.51 373.68 188.93 370.93 192.11 369.39 C 200.08 372.92 208.71 374.56 217.31 375.70 C 221.41 368.95 225.61 362.24 229.26 355.23 C 214.38 347.97 200.96 338.11 188.96 326.76 C 178.07 331.79 167.89 338.24 158.09 345.11 C 156.76 346.19 155.02 345.56 153.49 345.53 C 153.62 344.11 152.81 342.16 154.07 341.11 C 163.49 333.75 174.13 328.21 184.40 322.16 C 180.97 318.01 177.31 314.02 174.49 309.41 C 163.96 311.20 153.51 313.38 143.09 315.68 C 141.17 316.45 140.42 314.34 139.37 313.22 C 139.69 312.53 140.34 311.15 140.66 310.46 C 150.58 307.59 160.83 306.10 170.97 304.23 C 168.02 298.90 165.32 293.44 163.11 287.77 C 155.38 287.10 147.74 285.56 139.97 285.43 C 138.42 285.41 136.78 285.34 135.50 284.35 C 134.91 282.78 135.43 281.14 135.66 279.56 C 144.14 279.28 152.54 280.73 160.95 281.66 C 158.30 269.99 156.47 257.90 158.21 245.95 C 159.10 234.35 161.82 222.98 165.12 211.85 C 162.42 209.32 161.03 205.26 162.93 201.87 C 164.47 199.28 167.58 198.68 170.34 198.44 C 173.77 191.00 177.30 183.60 181.55 176.59 C 182.63 174.66 184.36 172.68 183.46 170.33 C 179.41 154.16 176.66 137.67 175.42 121.06 C 174.76 110.85 174.08 100.56 175.22 90.36 C 175.80 77.88 177.77 65.39 181.67 53.50 M 186.10 59.06 C 179.15 83.37 179.60 109.03 182.57 133.91 C 184.17 144.30 185.22 154.87 188.46 164.92 C 193.13 158.96 197.69 152.91 202.64 147.18 C 200.10 129.19 198.28 111.12 196.00 93.11 C 195.51 89.90 195.36 86.64 195.54 83.40 C 197.62 83.13 199.80 83.15 201.57 84.43 C 216.11 92.89 230.70 101.27 245.15 109.88 C 246.38 110.55 247.87 111.26 249.15 110.23 C 255.23 106.82 261.71 104.24 267.91 101.07 C 256.79 93.85 244.81 88.13 233.18 81.80 C 226.72 78.90 220.67 75.02 213.88 72.91 C 212.73 71.43 210.80 70.87 209.22 69.97 C 201.49 66.37 193.90 62.49 186.10 59.06 M 469.59 71.49 C 451.23 80.24 433.09 89.47 415.47 99.61 C 414.49 99.79 413.74 101.44 415.02 101.75 C 421.47 104.60 427.81 107.68 433.97 111.10 C 436.50 109.58 439.50 108.57 441.49 106.31 C 455.64 99.01 468.84 89.95 482.90 82.47 C 483.58 82.77 484.94 83.38 485.63 83.69 C 486.12 90.12 484.87 96.49 484.32 102.88 C 482.62 115.62 481.48 128.43 479.60 141.15 C 479.57 143.88 478.31 147.25 480.65 149.38 C 485.15 154.40 489.05 159.90 493.20 165.21 C 497.07 150.77 498.85 135.84 500.32 120.99 C 501.09 103.69 501.56 86.16 497.91 69.12 C 497.24 65.75 496.41 62.42 495.45 59.12 C 486.66 62.90 478.21 67.38 469.59 71.49 M 440.50 114.76 C 448.21 119.83 455.58 125.43 462.73 131.27 C 466.62 134.40 469.88 138.23 473.81 141.32 C 475.65 124.59 478.15 107.92 479.64 91.16 C 466.55 98.95 452.98 106.02 440.50 114.76 M 202.11 91.31 C 202.83 108.14 206.00 124.77 207.95 141.49 C 210.40 139.44 212.68 137.20 214.98 134.97 C 223.11 127.32 232.42 121.09 241.30 114.38 C 228.32 106.56 215.31 98.76 202.11 91.31 M 315.67 93.94 C 306.25 95.44 296.86 97.40 287.76 100.26 C 264.21 107.35 241.92 119.13 223.41 135.39 C 202.06 153.28 185.61 176.73 175.14 202.47 C 185.41 209.48 195.28 217.04 205.53 224.06 C 209.47 217.71 213.77 211.38 219.75 206.76 C 231.34 196.79 246.78 191.42 262.05 192.19 C 276.72 192.49 290.98 198.69 301.61 208.73 C 309.86 216.03 315.52 225.83 319.31 236.08 C 323.92 233.96 328.75 232.39 333.74 231.43 C 339.72 231.17 345.82 230.70 351.68 232.21 C 355.41 233.07 358.95 234.58 362.46 236.10 C 365.78 225.65 371.68 216.03 379.90 208.72 C 395.29 194.26 418.28 188.68 438.60 194.40 C 454.71 198.39 468.29 209.89 476.54 224.09 C 481.35 221.14 485.71 217.53 490.29 214.23 C 495.66 210.16 501.34 206.52 506.59 202.28 C 501.07 190.54 495.58 178.65 487.83 168.18 C 466.13 135.78 432.50 112.14 395.40 100.67 C 385.82 97.64 375.94 95.54 366.03 93.90 C 362.92 93.54 359.80 93.27 356.73 92.71 C 345.93 92.17 335.09 91.99 324.31 92.81 C 321.44 93.29 318.55 93.57 315.67 93.94 M 251.41 247.37 C 240.50 262.16 229.91 277.20 218.84 291.88 C 220.80 293.63 222.78 295.37 224.85 297.01 C 238.87 277.95 252.53 258.62 266.49 239.51 C 274.23 228.66 282.41 218.13 289.94 207.13 C 287.80 205.84 285.71 204.46 283.67 203.03 C 273.16 217.98 261.84 232.35 251.41 247.37 M 447.18 203.29 C 443.83 208.21 440.33 213.02 436.82 217.82 C 418.35 242.66 400.40 267.87 381.87 292.66 C 383.93 294.32 385.94 296.03 387.95 297.74 C 409.93 267.75 431.79 237.67 453.79 207.69 C 451.58 206.23 449.37 204.78 447.18 203.29 M 243.17 291.16 C 240.27 295.28 236.92 299.12 234.65 303.66 C 236.32 304.37 238.00 305.09 239.68 305.79 C 260.74 276.56 281.73 247.27 302.72 217.98 C 301.44 216.66 300.15 215.34 298.87 214.03 C 280.00 239.52 261.53 265.31 243.17 291.16 M 407.80 289.80 C 404.53 294.55 400.72 298.96 398.08 304.12 C 399.82 304.73 401.56 305.38 403.33 305.91 C 416.31 287.43 429.69 269.22 442.95 250.94 C 450.79 240.20 458.35 229.24 466.47 218.71 C 465.04 217.28 463.60 215.88 462.14 214.49 C 444.07 239.63 425.58 264.46 407.80 289.80 M 482.09 236.38 C 483.48 246.06 484.65 256.04 482.44 265.71 C 480.72 274.24 476.57 282.00 472.03 289.33 C 463.75 301.18 450.81 309.20 436.99 312.97 C 421.97 316.80 405.47 314.72 391.96 307.05 C 379.06 300.27 369.11 288.49 363.92 274.95 C 361.08 266.89 359.97 258.27 360.48 249.76 C 352.87 245.27 343.65 242.10 334.82 244.35 C 330.01 245.03 325.75 247.53 321.46 249.65 C 321.68 256.36 320.72 263.04 319.26 269.57 C 317.35 277.27 313.33 284.29 308.60 290.59 C 299.11 303.34 284.35 311.79 268.75 314.34 C 263.00 314.95 257.17 314.93 251.41 314.41 C 235.73 312.19 220.63 303.92 211.12 291.15 C 205.06 283.31 200.75 274.03 199.04 264.23 C 197.48 255.20 198.58 246.03 199.86 237.06 C 197.80 234.44 194.71 232.91 192.14 230.87 C 185.02 225.47 177.63 220.45 170.47 215.12 C 163.54 236.74 160.34 260.62 167.54 282.62 C 177.56 284.79 187.65 286.77 197.45 289.84 C 197.46 290.63 197.48 292.20 197.49 292.99 C 196.91 293.36 195.76 294.09 195.18 294.46 C 192.22 293.81 189.32 292.71 186.28 292.57 C 180.95 291.15 175.59 289.71 170.09 289.15 C 171.08 291.75 172.15 294.33 173.39 296.83 C 174.78 299.09 176.14 301.38 177.60 303.61 C 183.36 302.71 189.20 302.47 194.98 301.69 C 198.12 300.89 199.95 305.83 196.87 307.10 C 191.58 307.58 186.27 307.90 181.00 308.63 C 183.66 312.58 186.70 316.27 189.86 319.84 C 193.97 318.37 197.68 315.07 202.27 315.53 C 202.50 316.89 202.74 318.25 202.93 319.62 C 200.20 321.14 197.33 322.37 194.56 323.78 C 211.43 340.80 233.12 352.16 255.47 360.26 C 274.37 366.67 293.99 371.49 313.97 372.68 C 319.54 374.00 325.34 373.42 330.99 374.22 C 358.18 374.86 385.66 372.44 411.85 364.75 C 432.41 358.85 452.51 350.49 470.01 338.03 C 476.10 333.78 482.08 329.28 487.18 323.85 C 484.14 322.41 481.09 320.98 478.25 319.18 C 478.74 317.89 479.23 316.59 479.71 315.30 C 484.22 315.12 487.78 318.30 491.86 319.74 C 494.91 316.20 498.09 312.72 500.47 308.67 C 495.55 307.68 490.53 307.61 485.57 307.11 C 482.91 306.98 483.43 304.25 483.28 302.35 C 490.15 300.49 497.26 303.15 504.20 303.62 C 505.80 301.13 507.27 298.57 508.73 296.00 C 509.65 293.71 510.60 291.44 511.58 289.18 C 503.91 290.20 496.42 292.21 488.86 293.81 C 487.54 294.01 486.23 294.22 484.93 294.44 C 484.41 293.05 483.90 291.65 483.40 290.26 C 493.19 286.56 503.55 284.79 513.76 282.67 C 516.81 274.46 517.94 265.71 518.22 257.00 C 517.93 242.78 515.71 228.59 511.56 214.99 C 501.58 221.90 491.87 229.19 482.09 236.38 M 234.52 358.08 C 231.07 364.28 227.06 370.16 223.76 376.44 C 241.56 379.18 259.65 380.77 276.97 386.02 C 302.45 393.46 326.94 408.20 341.10 431.22 C 345.84 424.38 350.81 417.62 357.10 412.11 C 370.77 399.87 387.57 391.45 405.08 386.22 C 422.35 381.04 440.33 379.25 458.09 376.57 C 454.77 370.26 450.66 364.40 447.32 358.10 C 430.70 364.99 413.69 371.23 395.97 374.63 C 391.55 375.27 387.18 376.26 382.75 376.86 C 363.35 380.08 343.62 380.27 324.02 379.46 C 310.42 378.67 296.94 376.57 283.54 374.14 C 266.66 370.62 250.41 364.68 234.52 358.08 M 186.86 380.36 C 198.97 385.78 211.55 390.08 223.74 395.32 C 255.46 407.76 286.95 420.76 318.55 433.46 C 324.75 435.54 331.29 436.55 337.81 436.88 C 329.94 422.08 316.68 411.02 302.40 402.69 C 284.71 393.04 265.00 387.73 245.07 385.34 C 227.63 382.55 209.59 381.83 192.91 375.57 C 190.93 377.22 188.93 378.84 186.86 380.36 M 471.48 380.79 C 447.62 384.68 423.00 385.65 400.10 394.01 C 377.73 401.95 356.20 415.73 344.42 436.92 C 348.79 436.75 353.12 436.13 357.39 435.24 C 365.13 433.75 372.09 429.88 379.51 427.39 C 418.85 412.17 457.90 396.21 497.21 380.93 C 495.42 379.28 493.59 377.69 491.75 376.10 C 485.11 378.14 478.35 379.80 471.48 380.79 M 469.88 397.89 C 457.54 402.29 445.64 407.80 433.36 412.33 C 410.73 421.37 387.90 429.94 365.38 439.25 C 365.45 505.82 365.17 572.40 365.46 638.98 C 372.02 636.97 378.35 634.29 384.75 631.80 C 405.11 623.40 425.74 615.68 446.00 607.04 C 457.57 602.73 469.09 598.30 480.43 593.43 C 491.90 588.89 503.45 584.52 514.78 579.66 C 516.58 578.94 516.15 576.61 516.32 575.08 C 516.21 563.05 516.34 551.02 516.26 539.00 C 516.29 534.24 516.36 529.47 515.66 524.76 C 503.68 523.37 493.21 515.57 487.57 505.06 C 479.89 490.78 483.04 472.12 494.35 460.67 C 497.43 457.93 500.66 455.29 504.34 453.37 C 508.15 451.45 512.35 450.52 516.40 449.23 C 516.19 426.16 516.68 403.09 516.16 380.03 C 500.43 385.14 485.27 391.85 469.88 397.89 M 170.37 449.63 C 177.44 450.88 184.56 453.11 190.01 457.98 C 199.00 465.18 203.75 476.66 204.25 488.00 C 203.92 495.08 201.90 502.14 198.13 508.18 C 191.95 517.55 181.64 524.10 170.38 525.11 C 170.39 543.28 170.30 561.46 170.44 579.64 C 188.84 587.25 207.36 594.56 225.68 602.38 C 238.39 607.10 250.77 612.63 263.37 617.63 C 281.11 624.65 298.59 632.34 316.50 638.90 C 316.82 627.27 316.58 615.63 316.63 604.00 C 316.57 548.95 316.70 493.89 316.61 438.84 C 277.88 422.88 238.92 407.47 200.00 392.00 C 190.30 387.64 180.16 384.44 170.41 380.21 C 170.08 403.35 170.46 426.49 170.37 449.63 M 522.15 434.01 C 522.64 438.81 521.00 443.68 522.20 448.42 C 523.56 449.40 525.25 449.74 526.78 450.41 C 526.72 451.76 526.66 453.11 526.61 454.47 C 521.51 454.92 516.37 455.21 511.37 456.39 C 502.38 459.61 495.43 466.77 491.46 475.35 C 498.04 475.59 504.62 475.28 511.19 475.58 C 511.63 476.80 512.13 478.00 512.70 479.18 C 511.45 479.86 510.53 481.42 508.99 481.35 C 502.49 481.49 495.99 481.32 489.49 481.44 C 489.11 486.86 488.98 492.40 490.53 497.68 C 497.00 497.89 503.48 497.48 509.95 497.85 C 513.49 497.99 513.16 503.82 509.76 503.61 C 504.47 503.92 499.16 503.51 493.87 503.80 C 499.65 514.38 512.25 521.06 524.25 518.83 C 533.45 517.32 541.29 511.14 546.69 503.76 C 555.81 490.04 555.65 471.72 549.15 456.95 C 543.79 443.27 533.50 432.34 522.46 422.98 C 521.56 426.61 521.75 430.33 522.15 434.01 M 160.49 426.60 C 149.73 436.20 140.71 448.13 136.19 461.95 C 132.15 473.73 132.13 487.16 137.60 498.49 C 142.46 509.08 152.42 517.30 163.97 519.36 C 175.94 520.85 187.41 514.13 193.99 504.41 C 187.89 503.00 181.59 504.21 175.43 503.38 C 175.33 501.78 175.29 500.19 175.30 498.61 C 182.41 496.85 189.80 498.13 197.03 497.63 C 198.34 492.33 198.84 486.89 198.20 481.46 C 190.60 480.76 182.73 482.49 175.31 480.41 C 175.38 478.82 175.45 477.24 175.61 475.67 C 182.38 474.98 189.19 475.57 195.98 475.27 C 192.04 466.16 184.13 458.95 174.49 456.38 C 170.50 454.98 166.20 455.69 162.14 454.81 C 160.40 454.56 160.64 452.31 160.04 451.09 C 161.53 450.13 163.07 449.23 164.58 448.29 C 164.33 440.14 164.57 431.98 164.32 423.82 C 163.01 424.71 161.70 425.59 160.49 426.60 M 322.38 441.04 C 322.35 507.89 322.27 574.74 322.46 641.59 C 326.81 643.38 331.25 645.02 335.85 646.06 C 344.02 648.12 352.15 644.74 359.46 641.39 C 359.79 574.62 359.53 507.84 359.67 441.07 C 352.11 442.58 344.43 442.80 336.75 442.83 C 331.96 442.25 327.18 441.54 322.38 441.04 M 522.24 526.06 C 521.54 531.01 521.72 536.01 521.70 541.00 C 521.69 554.94 521.83 568.89 521.66 582.84 C 510.63 588.16 498.70 591.38 487.78 596.95 C 495.30 599.02 503.05 601.64 508.64 607.36 C 517.79 615.79 522.67 628.40 521.62 640.80 C 528.37 633.35 534.75 625.37 538.91 616.15 C 545.37 601.45 548.33 584.98 545.76 569.02 C 543.25 552.58 535.30 536.62 522.24 526.06 M 142.34 595.96 C 145.08 612.96 153.82 628.53 165.63 640.89 C 165.60 636.98 165.54 633.05 166.32 629.21 C 168.31 617.77 176.00 607.72 186.06 602.09 C 189.99 599.89 194.42 598.89 198.61 597.31 C 189.32 593.07 179.71 589.61 170.30 585.68 C 168.35 584.78 166.08 584.21 164.61 582.57 C 164.27 564.15 164.80 545.69 164.35 527.26 C 144.99 543.71 137.44 571.47 142.34 595.96 M 172.47 627.89 C 170.48 634.68 171.39 641.95 173.92 648.47 C 177.42 648.57 180.91 648.58 184.41 648.54 C 184.39 643.15 184.26 637.75 184.46 632.36 C 186.12 631.53 189.01 631.07 189.65 633.37 C 190.82 638.34 190.00 643.54 190.26 648.61 C 194.57 648.54 198.88 648.59 203.19 648.57 C 203.29 642.29 203.04 636.00 203.38 629.73 C 204.10 629.40 205.54 628.75 206.26 628.42 C 207.02 629.34 208.58 629.86 208.60 631.23 C 208.88 637.02 208.56 642.83 208.69 648.63 C 213.06 648.57 217.44 648.60 221.82 648.67 C 222.05 643.56 221.23 638.31 222.25 633.28 C 222.94 630.69 225.72 631.91 227.46 632.50 C 228.05 637.78 226.75 643.49 228.19 648.51 C 231.20 648.67 234.22 648.59 237.24 648.59 C 239.31 640.47 239.61 631.52 236.25 623.70 C 232.28 614.58 224.22 607.23 214.59 604.56 C 209.65 602.96 204.34 603.16 199.23 603.58 C 186.63 605.54 175.70 615.59 172.47 627.89 M 469.36 605.48 C 459.92 609.34 452.70 617.82 449.65 627.46 C 447.39 634.35 448.39 641.79 450.65 648.54 C 453.61 648.57 456.58 648.59 459.55 648.63 C 459.61 643.45 459.28 638.25 459.74 633.09 C 460.86 630.82 464.11 630.86 465.27 633.09 C 465.69 638.23 465.29 643.42 465.44 648.59 C 469.85 648.51 474.26 648.56 478.68 648.59 C 478.79 642.44 478.29 636.25 478.88 630.13 C 479.81 627.25 484.82 628.20 484.45 631.22 C 484.63 636.98 484.41 642.73 484.51 648.49 C 488.82 648.49 493.14 648.55 497.47 648.54 C 497.49 643.49 497.25 638.44 497.59 633.41 C 497.77 630.93 500.69 631.55 502.41 631.40 C 504.12 636.93 502.97 642.81 503.35 648.51 C 506.63 648.52 509.91 648.59 513.20 648.56 C 515.69 641.78 516.74 634.25 514.43 627.27 C 511.30 615.83 501.61 606.35 490.03 603.70 C 483.16 602.78 475.83 602.65 469.36 605.48 M 366.85 644.82 C 364.30 645.82 361.80 646.96 359.42 648.32 C 387.60 648.96 415.80 648.44 443.99 648.64 C 443.63 644.73 442.75 640.88 442.61 636.96 C 442.61 627.44 446.41 618.39 451.91 610.76 C 423.57 622.15 395.26 633.61 366.85 644.82 M 237.06 613.08 C 239.45 617.52 242.01 621.95 243.23 626.90 C 245.30 633.97 244.72 641.51 243.07 648.60 C 269.92 648.49 296.80 649.07 323.63 648.28 C 320.54 646.56 317.19 645.38 313.89 644.14 C 288.29 633.77 262.81 623.08 237.06 613.08 Z" />
<path fill="#040404" opacity="1.00" d=" M 321.78 289.15 C 320.59 286.04 321.23 281.79 324.82 280.65 C 332.20 280.41 339.60 280.65 346.99 280.49 C 350.25 280.55 353.57 280.17 356.79 280.84 C 360.55 282.33 360.21 287.08 359.21 290.26 C 356.22 297.48 349.88 302.39 344.38 307.62 C 343.47 315.07 352.05 322.11 359.15 318.99 C 363.21 317.38 363.82 312.61 365.22 309.03 C 366.69 309.27 368.17 309.42 369.67 309.50 C 371.31 318.02 363.43 326.15 354.99 325.70 C 349.21 325.76 344.32 322.02 340.92 317.67 C 340.40 318.22 339.88 318.76 339.36 319.31 C 335.94 323.03 331.20 325.94 325.99 325.71 C 318.57 325.92 311.82 319.39 311.54 312.03 C 310.92 309.44 314.64 307.41 316.45 309.39 C 318.03 312.21 318.09 316.00 320.91 318.02 C 325.10 321.22 331.39 319.39 334.68 315.68 C 336.87 313.64 337.33 310.58 337.72 307.77 C 331.23 302.78 324.66 297.05 321.78 289.15 M 327.25 286.67 C 330.11 293.18 335.02 298.69 340.89 302.67 C 346.31 298.31 351.43 293.19 354.07 286.62 C 345.14 286.26 336.17 286.13 327.25 286.67 Z" />
</g>
<g id="#fac273ff">
<path fill="#fac273" opacity="1.00" d=" M 186.10 59.06 C 193.90 62.49 201.49 66.37 209.22 69.97 C 210.80 70.87 212.73 71.43 213.88 72.91 C 216.83 78.48 221.25 82.97 226.06 86.95 C 231.05 91.32 234.79 96.86 239.43 101.56 C 241.76 104.00 244.63 106.33 245.15 109.88 C 230.70 101.27 216.11 92.89 201.57 84.43 C 199.80 83.15 197.62 83.13 195.54 83.40 C 195.36 86.64 195.51 89.90 196.00 93.11 C 198.28 111.12 200.10 129.19 202.64 147.18 C 197.69 152.91 193.13 158.96 188.46 164.92 C 185.22 154.87 184.17 144.30 182.57 133.91 C 179.60 109.03 179.15 83.37 186.10 59.06 Z" />
<path fill="#fac273" opacity="1.00" d=" M 469.59 71.49 C 478.21 67.38 486.66 62.90 495.45 59.12 C 496.41 62.42 497.24 65.75 497.91 69.12 C 486.99 76.33 474.73 81.26 464.33 89.28 C 456.81 95.04 446.57 97.80 441.49 106.31 C 439.50 108.57 436.50 109.58 433.97 111.10 C 427.81 107.68 421.47 104.60 415.02 101.75 C 413.74 101.44 414.49 99.79 415.47 99.61 C 433.09 89.47 451.23 80.24 469.59 71.49 Z" />
<path fill="#fac273" opacity="1.00" d=" M 315.67 93.94 C 318.55 93.57 321.44 93.29 324.31 92.81 C 326.75 103.95 327.55 115.40 330.72 126.39 C 333.80 136.59 334.50 147.63 340.13 156.92 C 340.58 159.40 340.70 161.93 341.07 164.43 C 339.22 167.22 337.61 170.15 336.02 173.09 C 332.06 180.18 327.01 186.59 321.46 192.49 C 315.56 198.73 308.38 203.51 301.61 208.73 C 290.98 198.69 276.72 192.49 262.05 192.19 C 246.78 191.42 231.34 196.79 219.75 206.76 C 213.77 211.38 209.47 217.71 205.53 224.06 C 195.28 217.04 185.41 209.48 175.14 202.47 C 185.61 176.73 202.06 153.28 223.41 135.39 C 241.92 119.13 264.21 107.35 287.76 100.26 C 291.22 118.54 299.32 135.59 308.27 151.76 C 309.30 151.62 310.33 151.49 311.36 151.37 C 313.45 141.37 313.80 131.14 314.81 121.00 C 315.76 112.01 315.72 102.96 315.67 93.94 Z" />
<path fill="#fac273" opacity="1.00" d=" M 167.54 282.62 C 160.34 260.62 163.54 236.74 170.47 215.12 C 177.63 220.45 185.02 225.47 192.14 230.87 C 194.71 232.91 197.80 234.44 199.86 237.06 C 198.58 246.03 197.48 255.20 199.04 264.23 C 200.75 274.03 205.06 283.31 211.12 291.15 C 206.54 290.07 201.41 290.03 197.49 292.99 C 197.48 292.20 197.46 290.63 197.45 289.84 C 187.65 286.77 177.56 284.79 167.54 282.62 Z" />
<path fill="#fac273" opacity="1.00" d=" M 170.09 289.15 C 175.59 289.71 180.95 291.15 186.28 292.57 C 182.27 293.08 178.29 293.78 174.30 294.41 C 174.07 295.01 173.61 296.22 173.39 296.83 C 172.15 294.33 171.08 291.75 170.09 289.15 Z" />
<path fill="#fac273" opacity="1.00" d=" M 234.52 358.08 C 250.41 364.68 266.66 370.62 283.54 374.14 C 280.93 377.85 278.81 381.88 276.97 386.02 C 259.65 380.77 241.56 379.18 223.76 376.44 C 227.06 370.16 231.07 364.28 234.52 358.08 Z" />
<path fill="#fac273" opacity="1.00" d=" M 160.49 426.60 C 161.70 425.59 163.01 424.71 164.32 423.82 C 164.57 431.98 164.33 440.14 164.58 448.29 C 163.07 449.23 161.53 450.13 160.04 451.09 C 160.64 452.31 160.40 454.56 162.14 454.81 C 166.20 455.69 170.50 454.98 174.49 456.38 C 168.58 465.38 162.78 474.82 161.00 485.63 C 159.41 496.91 160.06 508.60 163.97 519.36 C 152.42 517.30 142.46 509.08 137.60 498.49 C 132.13 487.16 132.15 473.73 136.19 461.95 C 140.71 448.13 149.73 436.20 160.49 426.60 Z" />
<path fill="#fac273" opacity="1.00" d=" M 142.34 595.96 C 137.44 571.47 144.99 543.71 164.35 527.26 C 164.80 545.69 164.27 564.15 164.61 582.57 C 166.08 584.21 168.35 584.78 170.30 585.68 C 179.71 589.61 189.32 593.07 198.61 597.31 C 194.42 598.89 189.99 599.89 186.06 602.09 C 176.00 607.72 168.31 617.77 166.32 629.21 C 165.54 633.05 165.60 636.98 165.63 640.89 C 153.82 628.53 145.08 612.96 142.34 595.96 Z" />
<path fill="#fac273" opacity="1.00" d=" M 237.06 613.08 C 262.81 623.08 288.29 633.77 313.89 644.14 C 317.19 645.38 320.54 646.56 323.63 648.28 C 296.80 649.07 269.92 648.49 243.07 648.60 C 244.72 641.51 245.30 633.97 243.23 626.90 C 242.01 621.95 239.45 617.52 237.06 613.08 Z" />
</g>
<g id="#f3a14bff">
<path fill="#f3a14b" opacity="1.00" d=" M 497.91 69.12 C 501.56 86.16 501.09 103.69 500.32 120.99 C 498.85 135.84 497.07 150.77 493.20 165.21 C 489.05 159.90 485.15 154.40 480.65 149.38 C 478.31 147.25 479.57 143.88 479.60 141.15 C 481.48 128.43 482.62 115.62 484.32 102.88 C 484.87 96.49 486.12 90.12 485.63 83.69 C 484.94 83.38 483.58 82.77 482.90 82.47 C 468.84 89.95 455.64 99.01 441.49 106.31 C 446.57 97.80 456.81 95.04 464.33 89.28 C 474.73 81.26 486.99 76.33 497.91 69.12 Z" />
<path fill="#f3a14b" opacity="1.00" d=" M 213.88 72.91 C 220.67 75.02 226.72 78.90 233.18 81.80 C 244.81 88.13 256.79 93.85 267.91 101.07 C 261.71 104.24 255.23 106.82 249.15 110.23 C 247.87 111.26 246.38 110.55 245.15 109.88 C 244.63 106.33 241.76 104.00 239.43 101.56 C 234.79 96.86 231.05 91.32 226.06 86.95 C 221.25 82.97 216.83 78.48 213.88 72.91 Z" />
<path fill="#f3a14b" opacity="1.00" d=" M 356.73 92.71 C 359.80 93.27 362.92 93.54 366.03 93.90 C 364.89 107.30 366.86 120.67 367.78 134.02 C 368.16 139.96 368.88 145.88 370.28 151.68 C 376.54 150.81 377.67 143.75 380.31 139.12 C 386.77 126.93 391.97 114.05 395.40 100.67 C 432.50 112.14 466.13 135.78 487.83 168.18 C 495.58 178.65 501.07 190.54 506.59 202.28 C 501.34 206.52 495.66 210.16 490.29 214.23 C 485.71 217.53 481.35 221.14 476.54 224.09 C 468.29 209.89 454.71 198.39 438.60 194.40 C 418.28 188.68 395.29 194.26 379.90 208.72 C 373.70 203.36 366.70 198.93 360.99 193.01 C 352.84 184.65 346.80 174.52 341.07 164.43 C 340.70 161.93 340.58 159.40 340.13 156.92 C 343.42 155.01 345.63 151.83 346.25 148.08 C 349.37 133.96 353.10 119.98 355.96 105.80 C 357.04 101.53 357.75 97.07 356.73 92.71 Z" />
<path fill="#f3a14b" opacity="1.00" d=" M 482.09 236.38 C 491.87 229.19 501.58 221.90 511.56 214.99 C 515.71 228.59 517.93 242.78 518.22 257.00 C 517.94 265.71 516.81 274.46 513.76 282.67 C 503.55 284.79 493.19 286.56 483.40 290.26 C 479.58 290.63 475.78 289.96 472.03 289.33 C 476.57 282.00 480.72 274.24 482.44 265.71 C 484.65 256.04 483.48 246.06 482.09 236.38 Z" />
<path fill="#f3a14b" opacity="1.00" d=" M 488.86 293.81 C 496.42 292.21 503.91 290.20 511.58 289.18 C 510.60 291.44 509.65 293.71 508.73 296.00 C 502.77 292.44 495.47 293.41 488.86 293.81 Z" />
<path fill="#f3a14b" opacity="1.00" d=" M 395.97 374.63 C 413.69 371.23 430.70 364.99 447.32 358.10 C 450.66 364.40 454.77 370.26 458.09 376.57 C 440.33 379.25 422.35 381.04 405.08 386.22 C 403.25 382.36 401.40 378.52 399.64 374.63 C 398.41 374.60 397.19 374.60 395.97 374.63 Z" />
<path fill="#f3a14b" opacity="1.00" d=" M 522.15 434.01 C 521.75 430.33 521.56 426.61 522.46 422.98 C 533.50 432.34 543.79 443.27 549.15 456.95 C 555.65 471.72 555.81 490.04 546.69 503.76 C 541.29 511.14 533.45 517.32 524.25 518.83 C 526.48 507.71 527.88 496.19 525.88 484.92 C 523.71 474.40 519.76 463.57 511.37 456.39 C 516.37 455.21 521.51 454.92 526.61 454.47 C 526.66 453.11 526.72 451.76 526.78 450.41 C 525.25 449.74 523.56 449.40 522.20 448.42 C 521.00 443.68 522.64 438.81 522.15 434.01 Z" />
<path fill="#f3a14b" opacity="1.00" d=" M 522.24 526.06 C 535.30 536.62 543.25 552.58 545.76 569.02 C 548.33 584.98 545.37 601.45 538.91 616.15 C 534.75 625.37 528.37 633.35 521.62 640.80 C 522.67 628.40 517.79 615.79 508.64 607.36 C 503.05 601.64 495.30 599.02 487.78 596.95 C 498.70 591.38 510.63 588.16 521.66 582.84 C 521.83 568.89 521.69 554.94 521.70 541.00 C 521.72 536.01 521.54 531.01 522.24 526.06 Z" />
<path fill="#f3a14b" opacity="1.00" d=" M 366.85 644.82 C 395.26 633.61 423.57 622.15 451.91 610.76 C 446.41 618.39 442.61 627.44 442.61 636.96 C 442.75 640.88 443.63 644.73 443.99 648.64 C 415.80 648.44 387.60 648.96 359.42 648.32 C 361.80 646.96 364.30 645.82 366.85 644.82 Z" />
</g>
<g id="#f5bac7ff">
<path fill="#f5bac7" opacity="1.00" d=" M 440.50 114.76 C 452.98 106.02 466.55 98.95 479.64 91.16 C 478.15 107.92 475.65 124.59 473.81 141.32 C 469.88 138.23 466.62 134.40 462.73 131.27 C 455.58 125.43 448.21 119.83 440.50 114.76 Z" />
<path fill="#f5bac7" opacity="1.00" d=" M 202.11 91.31 C 215.31 98.76 228.32 106.56 241.30 114.38 C 232.42 121.09 223.11 127.32 214.98 134.97 C 212.68 137.20 210.40 139.44 207.95 141.49 C 206.00 124.77 202.83 108.14 202.11 91.31 Z" />
<path fill="#f5bac7" opacity="1.00" d=" M 327.25 286.67 C 336.17 286.13 345.14 286.26 354.07 286.62 C 351.43 293.19 346.31 298.31 340.89 302.67 C 335.02 298.69 330.11 293.18 327.25 286.67 Z" />
</g>
<g id="#ec8234ff">
<path fill="#ec8234" opacity="1.00" d=" M 324.31 92.81 C 335.09 91.99 345.93 92.17 356.73 92.71 C 357.75 97.07 357.04 101.53 355.96 105.80 C 353.10 119.98 349.37 133.96 346.25 148.08 C 345.63 151.83 343.42 155.01 340.13 156.92 C 334.50 147.63 333.80 136.59 330.72 126.39 C 327.55 115.40 326.75 103.95 324.31 92.81 Z" />
<path fill="#ec8234" opacity="1.00" d=" M 287.76 100.26 C 296.86 97.40 306.25 95.44 315.67 93.94 C 315.72 102.96 315.76 112.01 314.81 121.00 C 313.80 131.14 313.45 141.37 311.36 151.37 C 310.33 151.49 309.30 151.62 308.27 151.76 C 299.32 135.59 291.22 118.54 287.76 100.26 Z" />
<path fill="#ec8234" opacity="1.00" d=" M 366.03 93.90 C 375.94 95.54 385.82 97.64 395.40 100.67 C 391.97 114.05 386.77 126.93 380.31 139.12 C 377.67 143.75 376.54 150.81 370.28 151.68 C 368.88 145.88 368.16 139.96 367.78 134.02 C 366.86 120.67 364.89 107.30 366.03 93.90 Z" />
</g>
<g id="#e3e3e3ff">
<path fill="#e3e3e3" opacity="1.00" d=" M 336.02 173.09 C 337.61 170.15 339.22 167.22 341.07 164.43 C 346.80 174.52 352.84 184.65 360.99 193.01 C 366.70 198.93 373.70 203.36 379.90 208.72 C 371.68 216.03 365.78 225.65 362.46 236.10 C 358.95 234.58 355.41 233.07 351.68 232.21 C 345.82 230.70 339.72 231.17 333.74 231.43 C 336.03 230.84 338.31 230.19 340.59 229.58 C 341.21 219.39 340.54 209.19 340.70 199.00 C 340.55 188.87 341.44 178.70 340.28 168.59 C 338.83 170.07 337.37 171.53 336.02 173.09 Z" />
<path fill="#e3e3e3" opacity="1.00" d=" M 334.82 244.35 C 343.65 242.10 352.87 245.27 360.48 249.76 C 359.97 258.27 361.08 266.89 363.92 274.95 C 369.11 288.49 379.06 300.27 391.96 307.05 C 405.47 314.72 421.97 316.80 436.99 312.97 C 450.81 309.20 463.75 301.18 472.03 289.33 C 475.78 289.96 479.58 290.63 483.40 290.26 C 483.90 291.65 484.41 293.05 484.93 294.44 C 486.23 294.22 487.54 294.01 488.86 293.81 C 495.47 293.41 502.77 292.44 508.73 296.00 C 507.27 298.57 505.80 301.13 504.20 303.62 C 497.26 303.15 490.15 300.49 483.28 302.35 C 483.43 304.25 482.91 306.98 485.57 307.11 C 490.53 307.61 495.55 307.68 500.47 308.67 C 498.09 312.72 494.91 316.20 491.86 319.74 C 487.78 318.30 484.22 315.12 479.71 315.30 C 479.23 316.59 478.74 317.89 478.25 319.18 C 481.09 320.98 484.14 322.41 487.18 323.85 C 482.08 329.28 476.10 333.78 470.01 338.03 C 452.51 350.49 432.41 358.85 411.85 364.75 C 385.66 372.44 358.18 374.86 330.99 374.22 C 325.34 373.42 319.54 374.00 313.97 372.68 C 322.84 372.75 331.72 373.56 340.59 372.94 C 341.62 359.98 340.46 346.98 340.96 334.01 C 341.18 329.06 340.83 324.06 339.36 319.31 C 339.88 318.76 340.40 318.22 340.92 317.67 C 344.32 322.02 349.21 325.76 354.99 325.70 C 363.43 326.15 371.31 318.02 369.67 309.50 C 368.17 309.42 366.69 309.27 365.22 309.03 C 363.82 312.61 363.21 317.38 359.15 318.99 C 352.05 322.11 343.47 315.07 344.38 307.62 C 349.88 302.39 356.22 297.48 359.21 290.26 C 360.21 287.08 360.55 282.33 356.79 280.84 C 353.57 280.17 350.25 280.55 346.99 280.49 C 339.60 280.65 332.20 280.41 324.82 280.65 C 330.07 279.94 335.39 279.94 340.68 279.75 C 340.54 268.22 341.23 256.68 340.65 245.16 C 338.71 244.87 336.77 244.56 334.82 244.35 Z" />
<path fill="#e3e3e3" opacity="1.00" d=" M 471.48 380.79 C 478.35 379.80 485.11 378.14 491.75 376.10 C 493.59 377.69 495.42 379.28 497.21 380.93 C 457.90 396.21 418.85 412.17 379.51 427.39 C 372.09 429.88 365.13 433.75 357.39 435.24 C 353.12 436.13 348.79 436.75 344.42 436.92 C 356.20 415.73 377.73 401.95 400.10 394.01 C 423.00 385.65 447.62 384.68 471.48 380.79 Z" />
<path fill="#e3e3e3" opacity="1.00" d=" M 491.46 475.35 C 495.43 466.77 502.38 459.61 511.37 456.39 C 519.76 463.57 523.71 474.40 525.88 484.92 C 527.88 496.19 526.48 507.71 524.25 518.83 C 512.25 521.06 499.65 514.38 493.87 503.80 C 499.16 503.51 504.47 503.92 509.76 503.61 C 513.16 503.82 513.49 497.99 509.95 497.85 C 503.48 497.48 497.00 497.89 490.53 497.68 C 488.98 492.40 489.11 486.86 489.49 481.44 C 495.99 481.32 502.49 481.49 508.99 481.35 C 510.53 481.42 511.45 479.86 512.70 479.18 C 512.13 478.00 511.63 476.80 511.19 475.58 C 504.62 475.28 498.04 475.59 491.46 475.35 Z" />
<path fill="#e3e3e3" opacity="1.00" d=" M 469.36 605.48 C 475.83 602.65 483.16 602.78 490.03 603.70 C 501.61 606.35 511.30 615.83 514.43 627.27 C 516.74 634.25 515.69 641.78 513.20 648.56 C 509.91 648.59 506.63 648.52 503.35 648.51 C 502.97 642.81 504.12 636.93 502.41 631.40 C 500.69 631.55 497.77 630.93 497.59 633.41 C 497.25 638.44 497.49 643.49 497.47 648.54 C 493.14 648.55 488.82 648.49 484.51 648.49 C 484.41 642.73 484.63 636.98 484.45 631.22 C 484.82 628.20 479.81 627.25 478.88 630.13 C 478.29 636.25 478.79 642.44 478.68 648.59 C 474.26 648.56 469.85 648.51 465.44 648.59 C 465.29 643.42 465.69 638.23 465.27 633.09 C 464.11 630.86 460.86 630.82 459.74 633.09 C 459.28 638.25 459.61 643.45 459.55 648.63 C 456.58 648.59 453.61 648.57 450.65 648.54 C 448.39 641.79 447.39 634.35 449.65 627.46 C 452.70 617.82 459.92 609.34 469.36 605.48 Z" />
</g>
<g id="#2a7ab1ff">
<path fill="#2a7ab1" opacity="1.00" d=" M 469.88 397.89 C 485.27 391.85 500.43 385.14 516.16 380.03 C 516.68 403.09 516.19 426.16 516.40 449.23 C 512.35 450.52 508.15 451.45 504.34 453.37 C 500.66 455.29 497.43 457.93 494.35 460.67 C 494.51 446.04 494.41 431.40 494.32 416.77 C 484.25 419.86 474.68 424.35 464.78 427.92 C 438.78 438.37 412.63 448.44 386.60 458.81 C 386.69 487.44 386.50 516.08 386.73 544.71 C 418.17 533.09 449.13 520.23 480.51 508.45 C 482.94 507.49 485.29 506.33 487.57 505.06 C 493.21 515.57 503.68 523.37 515.66 524.76 C 516.36 529.47 516.29 534.24 516.26 539.00 C 516.34 551.02 516.21 563.05 516.32 575.08 C 516.15 576.61 516.58 578.94 514.78 579.66 C 503.45 584.52 491.90 588.89 480.43 593.43 C 469.09 598.30 457.57 602.73 446.00 607.04 C 425.74 615.68 405.11 623.40 384.75 631.80 C 378.35 634.29 372.02 636.97 365.46 638.98 C 365.17 572.40 365.45 505.82 365.38 439.25 C 387.90 429.94 410.73 421.37 433.36 412.33 C 445.64 407.80 457.54 402.29 469.88 397.89 Z" />
<path fill="#2a7ab1" opacity="1.00" d=" M 336.75 442.83 C 344.43 442.80 352.11 442.58 359.67 441.07 C 359.53 507.84 359.79 574.62 359.46 641.39 C 352.15 644.74 344.02 648.12 335.85 646.06 C 337.55 646.04 339.26 645.95 340.96 645.90 C 341.71 634.61 340.88 623.30 341.15 612.00 C 340.93 563.00 341.27 514.00 340.91 465.00 C 341.10 458.09 341.37 451.16 340.80 444.26 C 339.45 443.78 338.10 443.29 336.75 442.83 Z" />
<path fill="#2a7ab1" opacity="1.00" d=" M 406.29 473.31 C 430.41 464.06 454.38 454.40 478.47 445.08 C 478.98 447.09 479.53 449.10 479.78 451.17 C 476.47 452.76 473.08 454.17 469.64 455.42 C 446.81 463.89 424.48 473.62 401.59 481.93 C 401.12 480.06 400.26 478.17 400.77 476.22 C 402.31 474.77 404.37 474.10 406.29 473.31 Z" />
<path fill="#2a7ab1" opacity="1.00" d=" M 457.59 476.62 C 464.91 474.03 471.83 470.19 479.48 468.67 C 479.58 470.71 479.68 472.76 479.73 474.81 C 469.40 479.32 458.66 482.82 448.27 487.19 C 434.71 492.81 420.81 497.57 407.29 503.28 C 405.17 504.21 402.89 504.63 400.59 504.76 C 400.59 502.76 400.58 500.76 400.64 498.77 C 419.74 491.70 438.52 483.80 457.59 476.62 Z" />
</g>
<g id="#46aadcff">
<path fill="#46aadc" opacity="1.00" d=" M 170.37 449.63 C 170.46 426.49 170.08 403.35 170.41 380.21 C 180.16 384.44 190.30 387.64 200.00 392.00 C 238.92 407.47 277.88 422.88 316.61 438.84 C 316.70 493.89 316.57 548.95 316.63 604.00 C 316.58 615.63 316.82 627.27 316.50 638.90 C 298.59 632.34 281.11 624.65 263.37 617.63 C 250.77 612.63 238.39 607.10 225.68 602.38 C 207.36 594.56 188.84 587.25 170.44 579.64 C 170.30 561.46 170.39 543.28 170.38 525.11 C 181.64 524.10 191.95 517.55 198.13 508.18 C 201.90 502.14 203.92 495.08 204.25 488.00 C 203.75 476.66 199.00 465.18 190.01 457.98 C 184.56 453.11 177.44 450.88 170.37 449.63 M 194.78 419.19 C 194.70 421.47 194.67 423.75 194.64 426.04 C 220.85 436.59 247.10 447.07 273.32 457.62 C 280.02 460.19 286.40 463.79 293.54 465.04 C 293.56 462.91 293.53 460.79 293.53 458.67 C 268.60 449.09 244.02 438.59 219.11 428.93 C 210.96 425.79 203.03 422.08 194.78 419.19 Z" />
<path fill="#46aadc" opacity="1.00" d=" M 322.38 441.04 C 327.18 441.54 331.96 442.25 336.75 442.83 C 338.10 443.29 339.45 443.78 340.80 444.26 C 341.37 451.16 341.10 458.09 340.91 465.00 C 341.27 514.00 340.93 563.00 341.15 612.00 C 340.88 623.30 341.71 634.61 340.96 645.90 C 339.26 645.95 337.55 646.04 335.85 646.06 C 331.25 645.02 326.81 643.38 322.46 641.59 C 322.27 574.74 322.35 507.89 322.38 441.04 Z" />
</g>
</svg>
